<svg width="28" height="28" viewBox="0 0 28 28" fill="none" xmlns="http://www.w3.org/2000/svg">
<path d="M11.4812 0C17.8119 0 22.9624 5.15047 22.9624 11.4812C22.9624 14.2537 21.9745 16.7997 20.3324 18.786L28 26.4537L26.4537 28L18.786 20.3324C16.7997 21.9745 14.2537 22.9624 11.4812 22.9624C5.15047 22.9624 0 17.8119 0 11.4812C0 5.15047 5.15041 0 11.4812 0ZM11.4812 20.7755C16.6061 20.7755 20.7755 16.6061 20.7755 11.4812C20.7755 6.35633 16.6061 2.1869 11.4812 2.1869C6.35633 2.1869 2.1869 6.35633 2.1869 11.4812C2.1869 16.6061 6.35633 20.7755 11.4812 20.7755Z" fill="#3E89F4"/>
</svg>
