<svg width="72" height="80" viewBox="0 0 72 80" fill="none" xmlns="http://www.w3.org/2000/svg">
<path d="M46.4698 23.16L46.2504 24.2091L47.3112 24.0558C47.8325 23.9805 48.3659 23.9415 48.9089 23.9415C55.0233 23.9415 59.98 28.8982 59.98 35.0126C59.98 41.1269 55.0233 46.0836 48.9089 46.0836H14.7925C8.67812 46.0836 3.72144 41.1269 3.72144 35.0126C3.72144 31.7889 5.09831 28.8878 7.29833 26.8635C9.27065 25.0487 11.9014 23.9415 14.7925 23.9415H16.3272C18.5216 23.9415 20.4052 22.9519 21.8393 21.7783C23.273 20.6051 24.3179 19.2003 24.853 18.2402L24.8993 18.1572L24.9234 18.0652C26.1688 13.3139 30.4929 9.80963 35.6335 9.80963C41.7479 9.80963 46.7046 14.7663 46.7046 20.8807C46.7046 21.6627 46.6236 22.425 46.4698 23.16Z" stroke="#197BBD" stroke-width="1.5"/>
<path d="M40.7255 61.8886V52.3981" stroke="#197BBD" stroke-width="1.5" stroke-linecap="round" stroke-linejoin="round"/>
<path d="M35.9813 57.1434L40.7266 52.3981L45.4718 57.1434" stroke="#197BBD" stroke-width="1.5" stroke-linecap="round" stroke-linejoin="round"/>
<path d="M23.7793 44.2642L28.5245 39.519L33.2698 44.2642" stroke="#197BBD" stroke-width="0.683017" stroke-linecap="round" stroke-linejoin="round"/>
<g clip-path="url(#clip0)">
<path d="M25.6329 59.9356L17.0048 68.5637C16.4753 69.0932 16.4753 69.9516 17.0048 70.4811L22.7568 76.2332C23.2863 76.7627 24.1447 76.7627 24.6742 76.2332L33.3023 67.6051C33.8318 67.0756 33.8318 66.2172 33.3023 65.6877L27.5503 59.9356C27.0208 59.4062 26.1624 59.4062 25.6329 59.9356Z" stroke="#197BBD" stroke-width="1.5" stroke-linecap="round" stroke-linejoin="round"/>
<path d="M18.9224 72.3981L29.4679 61.8526" stroke="#197BBD" stroke-width="1.5" stroke-linecap="round" stroke-linejoin="round"/>
</g>
<circle cx="17.8462" cy="17.4089" r="11.7215" transform="rotate(-30 17.8462 17.4089)" stroke="#197BBD" stroke-width="1.5"/>
<path d="M21.5465 16.9124C21.7647 17.2903 21.8636 17.6986 21.8432 18.1375C21.831 18.5716 21.6994 18.9981 21.4483 19.4168C21.2055 19.8308 20.8601 20.1999 20.4121 20.5243L21.2159 21.9165C21.2776 22.0232 21.2904 22.1308 21.2544 22.2392C21.2314 22.3511 21.1665 22.4378 21.0597 22.4995C20.9529 22.5611 20.8412 22.5763 20.7246 22.5451C20.621 22.5173 20.5383 22.45 20.4767 22.3432L19.68 20.9634C19.1436 21.2293 18.6132 21.3822 18.0887 21.4222C17.5642 21.4622 16.9999 21.4047 16.3957 21.2497C16.2497 21.2245 16.1435 21.1544 16.0771 21.0394C16.0202 20.9409 16.005 20.8292 16.0315 20.7044C16.0662 20.5748 16.1329 20.4816 16.2314 20.4247C16.33 20.3678 16.4441 20.3567 16.5736 20.3914C17.509 20.6837 18.4045 20.632 19.2604 20.2365L17.2687 16.7868C16.3591 16.9944 15.597 17.0401 14.9824 16.924C14.3678 16.808 13.8637 16.4091 13.4701 15.7273C13.124 15.1277 13.0524 14.5011 13.2553 13.8473C13.4535 13.1853 13.8951 12.6127 14.5799 12.1297L14.0322 11.1811C13.9706 11.0743 13.9536 10.9691 13.9814 10.8654C14.0126 10.7488 14.0817 10.6597 14.1884 10.5981C14.2952 10.5364 14.4028 10.5236 14.5112 10.5596C14.623 10.5826 14.7098 10.6475 14.7714 10.7543L15.312 11.6906C15.7711 11.4804 16.2369 11.3483 16.7096 11.2944C17.1822 11.2406 17.6118 11.2828 17.9983 11.421C18.2021 11.4895 18.3324 11.5731 18.3893 11.6716C18.4415 11.762 18.4502 11.8719 18.4155 12.0015C18.3761 12.1228 18.3071 12.212 18.2085 12.2689C18.1264 12.3163 18.0399 12.3278 17.9493 12.3035C17.6276 12.1826 17.2697 12.1319 16.8757 12.1513C16.4817 12.1707 16.1027 12.2635 15.7388 12.4298L17.6736 15.781C18.2729 15.643 18.7955 15.5713 19.2413 15.5658C19.6906 15.5473 20.1128 15.6431 20.5078 15.853C20.9063 16.0501 21.2525 16.4032 21.5465 16.9124ZM14.2198 15.2617C14.4569 15.6724 14.7862 15.9203 15.2077 16.0055C15.6375 16.0859 16.1656 16.0712 16.7921 15.9613L14.9996 12.8566C14.54 13.1986 14.2382 13.5864 14.0943 14.02C13.9456 14.4453 13.9874 14.8592 14.2198 15.2617ZM19.9925 19.7974C20.4391 19.4519 20.7385 19.06 20.8907 18.6217C21.0381 18.1752 20.998 17.7548 20.7704 17.3606C20.5156 16.9382 20.175 16.6803 19.7488 16.5869C19.3178 16.4853 18.7825 16.4877 18.143 16.5941L19.9925 19.7974Z" fill="#197BBD"/>
<path d="M2.97144 35.0113C2.97144 41.5399 8.2639 46.8324 14.7925 46.8324H48.9089C55.4375 46.8324 60.73 41.5399 60.73 35.0113C60.73 28.4827 55.4375 23.1903 48.9089 23.1903C48.3299 23.1903 47.7607 23.2319 47.2039 23.3123C47.3682 22.5272 47.4546 21.7134 47.4546 20.8794C47.4546 14.3508 42.1621 9.05838 35.6335 9.05838C30.1435 9.05838 25.5276 12.8009 24.1979 17.8738C23.2101 19.6459 20.2531 23.1903 16.3272 23.1903H14.7925C11.706 23.1903 8.8958 24.3732 6.79049 26.3103C4.44262 28.4707 2.97144 31.5692 2.97144 35.0113Z" fill="white"/>
<path d="M46.4698 23.1587L46.2504 24.2078L47.3112 24.0546C47.8325 23.9793 48.3659 23.9403 48.9089 23.9403C55.0233 23.9403 59.98 28.8969 59.98 35.0113C59.98 41.1257 55.0233 46.0824 48.9089 46.0824H14.7925C8.67812 46.0824 3.72144 41.1257 3.72144 35.0113C3.72144 31.7876 5.09831 28.8866 7.29833 26.8622C9.27065 25.0474 11.9014 23.9403 14.7925 23.9403H16.3272C18.5216 23.9403 20.4052 22.9506 21.8393 21.777C23.273 20.6038 24.3179 19.1991 24.853 18.239L24.8993 18.1559L24.9234 18.064C26.1688 13.3127 30.4929 9.80838 35.6335 9.80838C41.7479 9.80838 46.7046 14.7651 46.7046 20.8794C46.7046 21.6615 46.6236 22.4238 46.4698 23.1587Z" stroke="#197BBD" stroke-width="1.5"/>
<path d="M69.0373 14.0252C68.8861 15.6606 68.2724 17.2191 67.2678 18.5184C66.2633 19.8177 64.9095 20.804 63.3648 21.3619C61.8201 21.9199 60.1485 22.0264 58.5456 21.6689C56.9426 21.3115 55.4746 20.505 54.3132 19.3436C53.1519 18.1823 52.3454 16.7143 51.988 15.1113C51.6305 13.5084 51.737 11.8367 52.295 10.2921C52.8529 8.74743 53.8392 7.39361 55.1385 6.38905C56.4378 5.38449 57.9963 4.77074 59.6317 4.61961C58.6742 5.91494 58.2135 7.5109 58.3333 9.11722C58.453 10.7235 59.1454 12.2335 60.2844 13.3725C61.4234 14.5115 62.9334 15.2038 64.5397 15.3236C66.146 15.4434 67.7419 14.9827 69.0373 14.0252V14.0252Z" stroke="#197BBD" stroke-width="1.5" stroke-linecap="round" stroke-linejoin="round"/>
<rect x="20.3898" y="38.1722" width="16.2694" height="13.4883" fill="white"/>
<path d="M28.5246 49.0082V39.5177" stroke="#197BBD" stroke-width="1.5" stroke-linecap="round" stroke-linejoin="round"/>
<path d="M28.5246 47.6627V38.1722" stroke="#197BBD" stroke-width="1.5" stroke-linecap="round" stroke-linejoin="round"/>
<path d="M23.7791 42.9174L28.5243 38.1722L33.2696 42.9174" stroke="#197BBD" stroke-width="1.5" stroke-linecap="round" stroke-linejoin="round"/>
<defs>
<clipPath id="clip0">
<rect width="16.2694" height="16.2694" fill="white" transform="translate(13.6501 68.0842) rotate(-45)"/>
</clipPath>
</defs>
</svg>
