<svg width="44" height="29" viewBox="0 0 44 29" fill="none" xmlns="http://www.w3.org/2000/svg">
<path d="M18.0501 19.9097C18.0501 24.8164 14.0724 28.7941 9.16565 28.7941C4.25893 28.7941 0.28125 24.8164 0.28125 19.9097C0.28125 17.3227 1.38695 14.994 3.15156 13.3703C4.73385 11.9143 6.84593 11.0253 9.16565 11.0253C14.0724 11.0253 18.0501 15.003 18.0501 19.9097Z" fill="#197BBD"/>
<path d="M43.6911 19.9097C43.6911 24.8164 39.7134 28.7941 34.8067 28.7941C29.8999 28.7941 25.9223 24.8164 25.9223 19.9097C25.9223 19.2829 25.9872 18.6713 26.1106 18.0812C26.9536 14.0517 30.5267 11.0253 34.8067 11.0253C39.7134 11.0253 43.6911 15.003 43.6911 19.9097Z" fill="#197BBD"/>
<path d="M33.7136 9.28855C33.7136 13.7601 30.4102 17.4601 26.1106 18.0812C25.6922 18.1417 25.2644 18.1729 24.8292 18.1729C20.5169 18.1729 16.9221 15.1005 16.1145 11.0253C16.0032 10.4636 15.9448 9.8829 15.9448 9.28855C15.9448 8.50795 16.0455 7.75087 16.2345 7.02958C17.2339 3.21691 20.7031 0.404144 24.8292 0.404144C29.7359 0.404144 33.7136 4.38183 33.7136 9.28855Z" fill="#197BBD"/>
<path d="M18.0501 19.9097C18.0501 24.8164 14.0724 28.7941 9.16565 28.7941H34.8067C29.8999 28.7941 25.9223 24.8164 25.9223 19.9097C25.9223 19.2829 25.9872 18.6713 26.1106 18.0812C25.6922 18.1417 25.2644 18.1729 24.8292 18.1729C20.5169 18.1729 16.9221 15.1005 16.1145 11.0253H10.3191H9.16565C14.0724 11.0253 18.0501 15.003 18.0501 19.9097Z" fill="#197BBD"/>
<path d="M16.1145 11.0253C16.0032 10.4636 15.9448 9.8829 15.9448 9.28855C15.9448 8.50795 16.0455 7.75087 16.2345 7.02958C15.4921 8.36149 13.2697 11.0253 10.3191 11.0253H16.1145Z" fill="#197BBD"/>
</svg>
