<?xml version="1.0" ?><svg viewBox="0 0 23.84 16.89" xmlns="http://www.w3.org/2000/svg"><title/><g data-name="Camada 2" id="Camada_2"><g data-name="Camada 1" id="Camada_1-2"><path d="M21.84,2.09h-.09V1.94A1.94,1.94,0,0,0,19.82,0H1.94A1.94,1.94,0,0,0,0,1.94V12.86A1.94,1.94,0,0,0,1.94,14.8h.15v.09a2,2,0,0,0,2,2H21.84a2,2,0,0,0,2-2V4.09A2,2,0,0,0,21.84,2.09ZM1,3.48H20.76V5.54H1ZM1.94,1H19.82a.94.94,0,0,1,.94.94v.54H1V1.94A.94.94,0,0,1,1.94,1ZM1,12.86V6.54H20.76v6.32a.94.94,0,0,1-.94.94H1.94A.94.94,0,0,1,1,12.86Zm21.84,2a1,1,0,0,1-1,1H4.09a1,1,0,0,1-1-1V14.8H19.82a1.94,1.94,0,0,0,1.94-1.94V3.09h.09a1,1,0,0,1,1,1Z"/><path d="M15.11,12.52A1.8,1.8,0,0,0,16.42,12a1.81,1.81,0,1,0,0-2.48,1.8,1.8,0,1,0-1.31,3Zm2.61-2.61a.81.81,0,1,1-.81.81A.81.81,0,0,1,17.72,9.91Zm-2.61,0a.81.81,0,1,1-.81.81A.81.81,0,0,1,15.11,9.91Z"/></g></g></svg>