<svg version="1.1" xmlns="http://www.w3.org/2000/svg" xmlns:xlink="http://www.w3.org/1999/xlink" width="19" height="25" viewBox="0 0 19 25"><path id="Document" d="M18.136,25.000 C12.194,25.000 6.253,25.000 0.312,25.000 C0.074,24.866 -0.003,24.663 -0.003,24.395 C0.001,16.467 0.001,8.539 -0.003,0.611 C-0.003,0.319 0.072,0.104 0.365,-0.000 C4.343,-0.000 8.321,-0.000 12.299,-0.000 C12.822,0.497 13.352,0.986 13.866,1.491 C15.332,2.935 16.788,4.387 18.254,5.830 C18.429,6.003 18.504,6.193 18.503,6.431 C18.501,12.426 18.499,18.421 18.503,24.415 C18.504,24.703 18.411,24.899 18.136,25.000 zM12.627,1.530 C12.627,2.932 12.627,4.374 12.627,5.826 C14.092,5.826 15.541,5.826 16.954,5.826 C15.512,4.395 14.061,2.954 12.627,1.530 zM17.653,6.663 C17.559,6.663 17.482,6.663 17.405,6.663 C15.732,6.663 14.059,6.663 12.386,6.663 C11.917,6.663 11.779,6.527 11.778,6.056 C11.776,4.710 11.777,3.365 11.778,2.020 C11.778,1.632 11.778,1.244 11.778,0.844 C8.121,0.844 4.490,0.844 0.848,0.844 C0.848,8.621 0.848,16.383 0.848,24.155 C6.455,24.155 12.048,24.155 17.653,24.155 C17.653,18.328 17.653,12.516 17.653,6.663 zM4.834,7.503 C5.605,7.499 6.376,7.502 7.147,7.502 C7.147,7.503 7.147,7.503 7.147,7.504 C7.909,7.504 8.672,7.489 9.433,7.517 C9.580,7.522 9.781,7.659 9.848,7.791 C9.900,7.892 9.820,8.111 9.727,8.219 C9.654,8.303 9.474,8.325 9.341,8.326 C7.835,8.333 6.328,8.331 4.821,8.329 C4.509,8.328 4.313,8.166 4.312,7.924 C4.310,7.670 4.506,7.505 4.834,7.503 zM4.594,14.219 C4.679,14.164 4.813,14.172 4.924,14.172 C6.448,14.169 7.971,14.170 9.494,14.170 C11.043,14.170 12.593,14.169 14.142,14.171 C14.470,14.171 14.667,14.335 14.662,14.589 C14.657,14.845 14.470,14.995 14.129,14.997 C13.411,15.001 12.694,14.998 11.976,14.998 C9.604,14.998 7.232,14.998 4.860,14.992 C4.736,14.992 4.579,14.972 4.497,14.897 C4.403,14.811 4.317,14.645 4.334,14.529 C4.350,14.413 4.482,14.291 4.594,14.219 zM4.617,17.545 C4.680,17.494 4.801,17.505 4.895,17.505 C7.968,17.503 11.040,17.505 14.112,17.502 C14.362,17.501 14.569,17.559 14.650,17.816 C14.737,18.087 14.511,18.325 14.160,18.328 C13.354,18.334 12.549,18.332 11.744,18.332 C10.982,18.332 10.221,18.332 9.459,18.332 C9.459,18.331 9.459,18.330 9.459,18.330 C7.936,18.330 6.413,18.330 4.890,18.328 C4.779,18.327 4.634,18.337 4.565,18.275 C4.455,18.176 4.326,18.017 4.335,17.891 C4.343,17.768 4.499,17.638 4.617,17.545 zM4.890,20.842 C6.430,20.835 7.971,20.837 9.511,20.837 C11.043,20.837 12.575,20.836 14.106,20.840 C14.217,20.840 14.364,20.837 14.428,20.901 C14.534,21.005 14.647,21.166 14.640,21.297 C14.634,21.412 14.476,21.529 14.365,21.622 C14.315,21.665 14.216,21.661 14.138,21.661 C11.022,21.663 7.907,21.663 4.791,21.663 C4.580,21.663 4.383,21.591 4.349,21.379 C4.327,21.241 4.382,21.047 4.477,20.948 C4.561,20.860 4.748,20.842 4.890,20.842 zM14.112,11.659 C12.572,11.666 11.031,11.664 9.490,11.664 C9.490,11.664 9.490,11.664 9.490,11.665 C7.940,11.665 6.391,11.664 4.841,11.666 C4.611,11.667 4.399,11.611 4.347,11.375 C4.319,11.247 4.367,11.050 4.457,10.964 C4.554,10.873 4.741,10.842 4.889,10.842 C7.498,10.835 10.107,10.837 12.716,10.837 C13.215,10.837 13.714,10.834 14.213,10.837 C14.429,10.838 14.609,10.942 14.640,11.147 C14.660,11.277 14.593,11.459 14.500,11.555 C14.419,11.637 14.245,11.659 14.112,11.659 z" fill="#757575" /></svg>