<?xml version="1.0" encoding="iso-8859-1"?>
<!-- Generator: Adobe Illustrator 19.1.0, SVG Export Plug-In . SVG Version: 6.00 Build 0)  -->
<svg version="1.1" id="Capa_1" xmlns="http://www.w3.org/2000/svg" xmlns:xlink="http://www.w3.org/1999/xlink" x="0px" y="0px"
	 viewBox="0 0 67.397 67.397" style="enable-background:new 0 0 67.397 67.397;" xml:space="preserve">
<g>
	<g>
		<path d="M4.741,59.483c0.523,0.627,1.377,0.874,2.15,0.619l8.5-2.753l2.443,8.595c0.223,0.784,0.9,1.354,1.711,1.441
			c0.071,0.008,0.143,0.012,0.214,0.012c0.731,0,1.413-0.402,1.764-1.059l10.305-19.306c0.709,0.064,1.426,0.103,2.15,0.103
			c0.543,0,1.079-0.025,1.613-0.062l10.283,19.265c0.351,0.656,1.032,1.059,1.764,1.059c0.071,0,0.143-0.004,0.214-0.012
			c0.812-0.087,1.488-0.657,1.711-1.441l2.442-8.595l8.501,2.753c0.774,0.255,1.627,0.008,2.15-0.619
			c0.523-0.625,0.614-1.506,0.23-2.225L52.6,37.987c3.097-3.989,4.946-8.99,4.946-14.419C57.546,10.572,46.974,0,33.979,0
			S10.411,10.572,10.411,23.569c0,5.234,1.718,10.074,4.616,13.99L4.511,57.258C4.127,57.977,4.218,58.858,4.741,59.483z
			 M51.64,53.026c-0.519-0.169-1.08-0.119-1.559,0.139l-0.482,0.258c-0.479,0.256-0.833,0.695-0.981,1.217l-1.547,5.444
			l-7.297-13.671c3.755-0.953,7.152-2.81,9.947-5.324l7.305,13.682L51.64,53.026z M33.979,4c10.789,0,19.567,8.778,19.567,19.568
			c0,10.789-8.778,19.566-19.567,19.566s-19.567-8.777-19.567-19.566C14.411,12.778,23.19,4,33.979,4z M17.863,40.74
			c2.745,2.578,6.104,4.505,9.834,5.538l-7.369,13.805l-1.548-5.444c-0.148-0.521-0.502-0.96-0.979-1.216l-0.481-0.258
			c-0.479-0.257-1.042-0.308-1.561-0.14l-5.386,1.744L17.863,40.74z"/>
	</g>
</g>
<g>
</g>
<g>
</g>
<g>
</g>
<g>
</g>
<g>
</g>
<g>
</g>
<g>
</g>
<g>
</g>
<g>
</g>
<g>
</g>
<g>
</g>
<g>
</g>
<g>
</g>
<g>
</g>
<g>
</g>
</svg>
